***************************************************************

[IMG]http://www.torrentforce.org/imghost/3/greyshadow_tfbanner.png[/IMG]

***************************************************************

[IMG]http://www.torrentforce.org/imghost/4/greyshadow_mrpopperspenguins.jpg[/IMG]

***************************************************************

FILM TITLE: Mr. Popper's Penguins (2011)

***************************************************************

Genre: Comedy | Family   

Rated PG for mild rude humor and some language

Release: 5 August 2011 (UK)

Director: Mark Waters

Writer: Sean Anders (screenplay), John Morris (screenplay)

Stars: Jim Carrey, Carla Gugino and Angela Lansbury 

Country: USA

Language: English

Plot:
The life of a businessman begins to change after he inherits six 
penguins, and as he transforms his apartment into a winter wonderland, 
his professional side starts to unravel.

IMDB Rating: 5.9/10 from 10,603 users   Metascore: 53/100
 
http://www.imdb.com/title/tt1396218/ 

****************************************************************

[IMG]http://www.torrentforce.org/imghost/4/greyshadow_mrpopperspenguinsmegui2.png[/IMG]
[IMG]http://www.torrentforce.org/imghost/4/greyshadow_mrpopperspenguinsx2641.png[/IMG]
[IMG]http://www.torrentforce.org/imghost/4/greyshadow_mrpopperspenguinsx2642.png[/IMG]
[IMG]http://www.torrentforce.org/imghost/4/greyshadow_mrpopperspenguinsx2643.png[/IMG]
[IMG]http://www.torrentforce.org/imghost/4/greyshadow_mrpopperspenguinsx264ps3.png[/IMG]
[IMG]http://www.torrentforce.org/imghost/1/greyshadow_mrpopperspenguinsx264wd.png[/IMG]

****************************************************************

[IMG]http://www.torrentforce.org/imghost/2/greyshadow_mediainfo.png[/IMG]
General
Complete name                    : Mr Popper's Penguins 2011 720p BDRip x264 ac3 (mp4) [TFRG].mp4
Format                           : MPEG-4
Format profile                   : Base Media
Codec ID                         : isom
File size                        : 2.66 GiB
Duration                         : 1h 34mn
Overall bit rate                 : 4042 Kbps
Encoded date                     : UTC 2011-11-06 12:46:07
Tagged date                      : UTC 2011-11-06 12:46:07

Video
ID                               : 1
Format                           : AVC
Format/Info                      : Advanced Video Codec
Format profile                   : High@L4.1
Format settings, CABAC           : Yes
Format settings, ReFrames        : 9 frames
Codec ID                         : avc1
Codec ID/Info                    : Advanced Video Coding
Duration                         : 1h 34mn
Bit rate                         : 3 400 Kbps
Maximum bit rate                 : 23.1 Mbps
Width                            : 1280 pixels
Height                           : 688 pixels
Display aspect ratio             : 1.860
Frame rate mode                  : Constant
Frame rate                       : 23.976 fps
Color space                      : YUV
Chroma subsampling               : 4:2:0
Bit depth                        : 8 bits
Scan type                        : Progressive
Bits/(Pixel*Frame)               : 0.161
Stream size                      : 2.24 GiB (84%)
Title                            : Mr Poppers Penguins AVC MPEG4 Video
Writing library                  : x264 core 119 r2106 07efeb4
Encoded date                     : UTC 2011-11-05 12:25:33
Tagged date                      : UTC 2011-11-06 12:47:05
Color primaries                  : BT.709-5, BT.1361, IEC 61966-2-4, SMPTE RP177
Transfer characteristics         : BT.709-5, BT.1361
Matrix coefficients              : BT.709-5, BT.1361, IEC 61966-2-4 709, SMPTE RP177

Audio
ID                               : 2
Format                           : AC-3
Format/Info                      : Audio Coding 3
Mode extension                   : CM (complete main)
Codec ID                         : ac-3
Duration                         : 1h 34mn
Bit rate mode                    : Constant
Bit rate                         : 640 Kbps
Channel(s)                       : 6 channels
Channel positions                : Front: L C R, Side: L R, LFE
Sampling rate                    : 48.0 KHz
Bit depth                        : 16 bits
Compression mode                 : Lossy
Stream size                      : 432 MiB (16%)
Title                            : Mr Poppers Penguins  AC3 5.1 Audio
Language                         : English
Encoded date                     : UTC 2011-11-06 12:46:48
Tagged date                      : UTC 2011-11-06 12:47:05

****************************************************************

Video Source: Mr Popper's Penguins 2011 BluRay REMUX 1080p AVC DTS-HD MA5.1-CHD (23.2GB)

Thanks: (chdbits.org)

****************************************************************

I provide a small sample, so please download this to check your 
compatibility first if you are unsure.

****************************************************************

7th October 2011

I am re-introducing my warning to all downloaders, please please
please use a proxy or vpn service, it is the only secure way to
keep your own ip address from being seen during downloading or
uploading/seeding, this WILL stop isp letters, as for advice to 
which one then thats simple, vpntunnel.se server based in Sweden 
is the right one to use, I have cancelled my vpn and transfered 
to a Swedish one already !!! enough said. 

****************************************************************

A big thanks to all the sites out there who care and share and
who make it possible for you to download this torrent for free.

Greetz to Westy, Ripwyn, mustang, noir, Blackjesus, MXMG, The Stig 
and all the other outstanding members of our community of file 
sharers and a special mention to our friends at 1337x.

****************************************************************